<?xml version="1.0" encoding="UTF-8" standalone="no"?>
<svg
   version="1.1"
   width="1821"
   height="1475"
   viewBox="0 0 1821 1475"
   id="svg32"
   sodipodi:docname="LPJLAB_ORANGE.svg"
   inkscape:version="1.4.3 (0d15f75, 2025-12-25)"
   xmlns:inkscape="http://www.inkscape.org/namespaces/inkscape"
   xmlns:sodipodi="http://sodipodi.sourceforge.net/DTD/sodipodi-0.dtd"
   xmlns="http://www.w3.org/2000/svg"
   xmlns:svg="http://www.w3.org/2000/svg">
  <defs
     id="defs32" />
  <sodipodi:namedview
     id="namedview32"
     pagecolor="#ffffff"
     bordercolor="#000000"
     borderopacity="0.25"
     inkscape:showpageshadow="2"
     inkscape:pageopacity="0.0"
     inkscape:pagecheckerboard="0"
     inkscape:deskcolor="#d1d1d1"
     inkscape:zoom="0.28441815"
     inkscape:cx="1082.9126"
     inkscape:cy="780.54091"
     inkscape:window-width="1451"
     inkscape:window-height="571"
     inkscape:window-x="0"
     inkscape:window-y="33"
     inkscape:window-maximized="0"
     inkscape:current-layer="svg32" />
  <g
     transform="translate(0.000000,1475.000000) scale(0.100000,-0.100000)"
     fill="#e05a00"
     stroke="none"
     id="g32">
    <path
       d="M5275 9840 c-134 -35 -277 -114 -376 -207 -59 -55 -144 -172 -188 -260 -33 -66 -33 -66 -124 -78 -55 -7 -164 -43 -224 -73 -209 -107 -358 -381 -380 -700 l-8 -107 -64 -41 c-178 -117 -276 -279 -300 -498 -20 -176 13 -339 107 -524 l36 -72 -52 -46 c-101 -88 -218 -285 -258 -434 -23 -87 -23 -253 0 -340 25 -95 97 -237 160 -316 65 -81 129 -138 240 -214 l81 -55 26 -80 c33 -102 65 -164 124 -243 128 -170 383 -292 645 -309 l95 -6 80 -82 c44 -44 101 -96 128 -114 155 -106 336 -143 511 -106 179 38 370 176 441 319 l25 50 0 2111 0 2112 -23 44 c-29 55 -173 183 -253 226 -32 17 -87 38 -120 47 -85 22 -240 20 -329 -4z m323 -176 c78 -25 154 -91 191 -165 l31 -62 0 -1425 0 -1424 -37 23 c-113 67 -215 98 -326 99 -96 0 -147 -43 -132 -110 11 -52 41 -67 140 -73 124 -7 191 -33 264 -106 96 -95 91 -61 91 -604 l0 -474 -28 -39 c-89 -122 -230 -195 -382 -197 -110 -2 -178 19 -275 84 -91 61 -161 143 -216 254 -37 76 -89 250 -89 301 0 12 -11 35 -24 51 -19 22 -32 28 -66 28 -34 0 -47 -6 -67 -30 -23 -26 -25 -34 -19 -92 4 -34 18 -102 32 -150 15 -49 29 -96 31 -105 7 -25 -23 -23 -139 6 -263 67 -428 232 -474 477 -21 109 -13 266 20 412 33 144 18 186 -67 187 -47 0 -81 -31 -97 -90 -17 -63 -40 -200 -41 -245 -1 -22 -4 -51 -8 -65 -7 -24 -11 -21 -102 70 -105 105 -155 186 -184 300 -21 80 -16 231 11 304 42 118 139 256 232 328 123 95 127 111 58 222 -176 281 -184 572 -23 775 46 58 145 125 226 153 93 32 307 32 428 0 101 -27 123 -27 157 -1 21 17 26 29 26 65 0 55 -21 77 -92 99 -117 35 -228 48 -361 41 l-128 -6 5 32 c3 18 11 67 17 108 24 152 80 272 168 360 101 100 215 143 381 143 103 0 171 -11 298 -50 71 -22 86 -24 112 -13 37 15 52 41 52 88 0 26 -7 42 -25 57 -23 20 -222 85 -259 85 -31 0 -28 16 16 81 92 137 240 247 388 290 82 23 219 24 286 3z"
       id="path1" />
    <path
       d="M5505 9141 c-35 -15 -47 -38 -62 -123 -26 -152 -95 -252 -208 -304 -145 -66 -303 -52 -487 43 -52 27 -74 33 -98 28 -67 -15 -93 -103 -45 -151 32 -31 169 -97 250 -119 155 -42 336 -27 467 37 81 40 192 151 236 235 37 71 72 196 72 259 0 71 -65 120 -125 95z"
       id="path2" />
    <path
       d="M4315 8043 c-67 -16 -85 -93 -38 -166 108 -168 233 -288 383 -369 44 -24 80 -48 80 -53 0 -22 -81 -132 -120 -163 -22 -19 -66 -45 -98 -59 -49 -23 -73 -26 -172 -28 -110 -3 -115 -4 -137 -29 -27 -31 -30 -81 -8 -113 24 -34 78 -46 174 -40 236 16 406 133 533 366 l17 31 98 -6 c98 -7 246 7 310 27 66 21 85 98 37 146 -26 25 -27 26 -117 17 -131 -13 -293 -10 -357 5 -176 43 -324 154 -443 333 -42 63 -66 89 -89 97 -17 6 -31 10 -32 10 -1 -1 -10 -3 -21 -6z"
       id="path3" />
    <path
       d="M5174 6978 c-125 -117 -207 -246 -240 -378 -13 -51 -15 -94 -11 -195 l5 -130 -126 -1 c-95 -1 -147 -7 -205 -23 -101 -27 -194 -69 -213 -95 -22 -32 -18 -83 11 -111 31 -32 78 -32 153 -1 98 41 204 59 306 53 176 -11 299 -74 483 -249 50 -48 67 -58 96 -58 50 0 87 40 87 93 0 37 -6 46 -82 121 -46 45 -111 99 -146 121 -133 85 -139 91 -162 152 -32 81 -38 205 -15 289 22 81 91 188 174 269 87 85 100 146 39 189 -46 32 -82 21 -154 -46z"
       id="path4" />
    <path
       d="M2516 9835 c-21 -7 -56 -30 -77 -51 -34 -34 -44 -50 -64 -109 -6 -18 -8 -17 -22 10 -42 82 -102 119 -194 118 -104 0 -168 -45 -206 -146 -13 -33 -17 -93 -21 -289 l-4 -248 461 0 461 0 0 239 c0 214 -2 246 -21 306 -45 146 -178 218 -313 170z m122 -209 c28 -17 42 -78 42 -185 l0 -111 -105 0 -105 0 0 91 c0 142 26 209 85 221 19 4 65 -5 83 -16z m-374 -51 c29 -31 36 -64 36 -166 l0 -79 -100 0 -100 0 0 73 c0 101 9 143 36 172 32 35 96 35 128 0z"
       id="path5" />
    <path
       d="M15720 9836 c-208 -60 -339 -273 -301 -490 47 -274 309 -428 576 -336 109 37 187 109 239 220 42 89 49 224 17 328 -35 117 -130 221 -241 263 -69 27 -224 35 -290 15z m249 -117 c59 -26 116 -81 149 -144 38 -73 43 -206 12 -289 -81 -214 -366 -264 -518 -91 -54 62 -77 129 -77 230 0 71 4 89 33 148 75 152 246 215 401 146z"
       id="path6" />
    <path
       d="M8980 9414 l0 -415 53 3 52 3 5 335 5 334 229 -337 228 -337 69 0 69 0 0 415 0 415 -55 0 -55 0 -2 -337 -3 -338 -225 337 -225 337 -72 1 -73 0 0 -416z"
       id="path7" />
    <path
       d="M10730 9415 l0 -415 278 2 277 3 3 53 3 52 -225 0 -226 0 0 130 0 130 198 2 197 3 3 53 3 52 -201 0 -201 0 3 123 3 122 213 3 212 2 0 50 0 50 -270 0 -270 0 0 -415z"
       id="path8" />
    <path
       d="M12262 9518 l3 -313 27 -51 c28 -52 87 -113 135 -137 45 -24 138 -39 190 -32 113 16 197 76 245 173 l33 67 3 302 3 303 -55 0 -54 0 -4 -282 c-3 -202 -8 -293 -18 -318 -36 -96 -111 -145 -210 -138 -74 5 -120 36 -157 103 l-28 50 -3 293 -3 292 -55 0 -55 0 3 -312z"
       id="path9" />
    <path
       d="M13922 9418 l3 -413 53 -3 52 -3 0 185 0 186 64 0 64 0 107 -185 107 -185 69 0 c82 0 88 -23 -46 190 -130 207 -123 187 -75 200 58 16 135 92 150 150 13 50 6 129 -15 169 -17 34 -61 74 -105 97 -30 16 -63 19 -233 22 l-197 4 2 -414z m361 298 c48 -20 69 -50 74 -103 3 -36 -1 -56 -17 -81 -31 -49 -72 -62 -200 -62 l-110 0 0 130 0 130 110 0 c71 0 122 -5 143 -14z"
       id="path10" />
    <path
       d="M6210 7393 l0 -2186 60 6 c298 32 517 328 457 619 -30 147 -103 259 -225 345 -84 59 -126 97 -162 149 -79 113 -93 288 -33 415 17 37 48 86 69 109 l38 42 73 -4 c58 -4 88 -13 146 -41 118 -58 189 -142 227 -266 24 -76 25 -130 5 -234 -19 -100 -19 -177 0 -251 105 -404 593 -539 886 -247 256 256 187 683 -135 842 -109 53 -213 69 -323 48 -43 -7 -118 -14 -168 -14 -80 1 -98 4 -158 32 -142 67 -242 204 -254 351 l-6 72 43 42 c24 22 73 55 109 72 62 29 73 31 176 31 91 -1 120 -5 167 -23 73 -29 151 -100 222 -201 67 -96 120 -142 211 -186 210 -100 438 -60 606 105 102 101 149 216 149 365 0 152 -52 281 -155 380 -234 227 -605 198 -791 -61 -27 -37 -71 -92 -98 -121 -144 -157 -392 -177 -565 -47 -72 54 -79 72 -62 168 23 137 117 257 248 319 60 28 78 31 158 32 50 0 133 -6 185 -14 84 -13 104 -12 171 2 144 29 256 102 335 217 59 88 86 166 92 270 8 155 -46 300 -150 403 -75 74 -140 111 -244 137 -194 50 -356 6 -498 -133 -127 -126 -181 -277 -156 -439 30 -194 24 -269 -27 -375 -67 -135 -269 -253 -396 -229 -79 15 -167 184 -167 320 0 165 66 274 232 392 156 109 238 261 238 439 0 274 -202 496 -482 529 l-48 6 0 -2187z"
       id="path11" />
    <path
       d="M2489 8871 c-197 -86 -402 -176 -458 -200 l-101 -44 0 -88 c0 -82 1 -88 23 -95 21 -7 146 -60 637 -274 129 -56 241 -104 248 -107 9 -4 12 22 12 109 l0 115 -92 35 -93 35 0 183 0 183 92 36 93 36 0 118 c0 64 -1 117 -2 116 -2 -1 -163 -71 -359 -158z m1 -336 c0 -70 -4 -105 -11 -105 -21 0 -270 102 -264 108 11 11 239 101 258 101 15 1 17 -10 17 -104z"
       id="path12" />
    <path
       d="M2670 7850 l0 -190 -370 0 -370 0 0 -100 0 -100 460 0 460 0 0 290 0 290 -90 0 -90 0 0 -190z"
       id="path13" />
    <path
       d="M15680 7831 c-138 -44 -244 -159 -281 -304 -7 -29 -10 -85 -7 -143 4 -79 10 -104 36 -156 56 -113 123 -175 232 -215 213 -79 444 8 541 203 124 250 -5 551 -265 620 -70 19 -189 17 -256 -5z m273 -118 c67 -30 110 -75 146 -153 22 -46 26 -69 26 -145 -1 -78 -4 -98 -28 -147 -58 -119 -174 -186 -303 -175 -171 13 -284 143 -284 326 0 247 221 393 443 294z"
       id="path14" />
    <path
       d="M8980 7414 l0 -415 53 3 52 3 3 413 2 412 -55 0 -55 0 0 -416z"
       id="path15" />
    <path
       d="M9750 7415 l0 -415 55 0 55 0 2 336 3 336 57 -139 c31 -76 93 -226 137 -333 l80 -195 37 0 38 0 123 300 c68 165 131 316 141 335 17 34 17 26 20 -303 l2 -338 53 3 52 3 3 413 2 413 -86 -3 -87 -3 -124 -300 c-69 -165 -128 -303 -132 -307 -4 -4 -65 132 -136 302 l-130 310 -82 0 -83 0 0 -415z"
       id="path16" />
    <path
       d="M11260 7415 l0 -415 55 0 55 0 0 338 c1 283 3 333 14 312 7 -14 71 -166 141 -337 l128 -313 37 0 36 0 56 138 c156 385 211 518 219 527 5 5 9 -135 9 -328 l0 -337 55 0 55 0 0 415 0 415 -84 0 -84 0 -34 -82 c-19 -46 -77 -185 -129 -310 -52 -125 -96 -228 -99 -228 -3 0 -63 140 -134 310 l-129 310 -84 0 -83 0 0 -415z"
       id="path17" />
    <path
       d="M12762 7527 l3 -302 32 -66 c35 -71 84 -117 161 -151 65 -30 188 -30 253 -1 63 28 125 86 157 147 l27 51 3 313 3 312 -55 0 -56 0 0 -273 c0 -307 -6 -349 -62 -406 -18 -19 -47 -40 -65 -47 -64 -27 -166 -11 -217 34 -10 9 -29 40 -42 67 -23 49 -24 57 -24 338 l0 287 -61 0 -60 0 3 -303z"
       id="path18" />
    <path
       d="M14052 7418 l3 -413 55 0 55 0 5 335 5 335 228 -338 228 -337 69 0 70 0 0 415 0 415 -55 0 -55 0 -2 -337 -3 -337 -225 336 -225 337 -78 1 -77 0 2 -412z"
       id="path19" />
    <path
       d="M1930 6786 l0 -105 356 -3 356 -3 29 -33 c16 -18 29 -43 29 -56 0 -28 -45 -86 -66 -86 -18 0 -18 -5 7 -105 13 -50 27 -85 34 -85 25 0 85 30 118 60 57 50 81 119 81 230 0 111 -23 171 -82 220 -74 61 -91 63 -494 68 l-368 4 0 -106z"
       id="path20" />
    <path
       d="M2106 6266 c-53 -20 -86 -45 -118 -92 -48 -68 -58 -135 -58 -376 l0 -218 460 0 460 0 0 105 0 105 -180 0 -180 0 0 124 c0 198 -38 285 -150 342 -47 24 -181 29 -234 10z m154 -209 c43 -21 60 -71 60 -174 l0 -93 -111 0 -112 0 5 98 c3 53 11 110 19 125 23 50 87 70 139 44z"
       id="path21" />
    <path
       d="M13140 5843 c-14 -3 -57 -20 -96 -39 -208 -99 -293 -370 -185 -589 103 -207 369 -292 583 -184 85 43 139 97 183 184 35 69 39 83 43 177 3 87 1 113 -17 166 -51 150 -156 248 -302 281 -44 10 -161 12 -209 4z m231 -124 c65 -28 131 -100 158 -175 29 -76 26 -203 -6 -276 -69 -153 -266 -223 -417 -147 -171 85 -226 319 -117 491 76 120 243 167 382 107z"
       id="path22" />
    <path
       d="M14898 5841 c-160 -52 -229 -239 -134 -364 39 -51 84 -78 200 -116 150 -51 192 -104 149 -188 -50 -96 -221 -110 -297 -24 -11 11 -24 21 -30 21 -14 -1 -86 -67 -86 -79 0 -15 71 -63 124 -84 59 -23 178 -27 243 -8 106 30 178 127 178 241 0 122 -55 177 -230 231 -80 25 -107 39 -137 69 -29 29 -38 46 -38 71 1 124 174 182 280 93 34 -29 26 -32 97 31 l23 21 -20 22 c-43 46 -99 65 -200 68 -52 2 -107 0 -122 -5z"
       id="path23" />
    <path
       d="M8970 5415 l0 -415 55 0 55 0 2 336 3 337 47 -114 c26 -63 75 -181 108 -264 134 -325 117 -295 156 -295 42 0 29 -25 194 380 62 151 116 279 121 285 5 5 9 -130 9 -328 l0 -337 55 0 55 0 0 415 0 416 -86 -3 -86 -3 -119 -285 c-66 -157 -122 -295 -125 -307 -3 -13 -9 -23 -13 -23 -3 0 -51 107 -105 238 -55 130 -113 270 -130 309 l-31 73 -82 0 -83 0 0 -415z"
       id="path24" />
    <path
       d="M10030 5415 l0 -415 278 2 277 3 3 53 3 52 -225 0 -226 0 0 130 0 130 198 2 197 3 3 53 3 52 -201 0 -201 0 3 123 3 122 213 3 212 2 0 50 0 50 -270 0 -270 0 0 -415z"
       id="path25" />
    <path
       d="M10650 5780 l0 -49 133 -3 132 -3 3 -362 2 -363 55 0 55 0 0 365 0 365 135 0 135 0 0 50 0 50 -325 0 -325 0 0 -50z"
       id="path26" />
    <path
       d="M11500 5682 c-35 -81 -117 -266 -182 -412 l-117 -265 56 -3 c31 -2 61 -1 67 1 7 3 30 50 52 106 l39 101 196 0 196 0 43 -105 43 -105 63 0 c35 0 64 2 64 4 0 4 -319 751 -341 799 -11 24 -17 27 -63 27 l-51 0 -65 -148z m201 -213 c32 -80 59 -148 59 -152 0 -4 -67 -7 -150 -7 -82 0 -150 1 -150 3 0 8 138 346 148 362 3 5 12 -6 20 -25 7 -19 40 -101 73 -181z"
       id="path27" />
    <path
       d="M12130 5414 l0 -417 183 5 c214 6 271 21 332 89 45 50 55 76 55 142 -1 92 -54 171 -135 201 -22 8 -33 15 -24 15 21 1 79 45 100 77 41 64 32 168 -22 229 -54 61 -113 75 -314 75 l-175 0 0 -416z m358 302 c37 -19 57 -60 56 -113 -2 -83 -55 -113 -204 -113 l-100 0 0 120 0 120 110 0 c76 0 120 -4 138 -14z m-6 -336 c20 -6 50 -26 67 -46 26 -29 31 -43 31 -88 0 -39 -6 -60 -21 -80 -37 -48 -74 -59 -201 -64 l-118 -4 0 146 0 146 103 0 c56 0 119 -5 139 -10z"
       id="path28" />
    <path
       d="M13832 5418 l3 -413 245 0 245 0 3 53 3 52 -190 0 -191 0 0 360 0 360 -60 0 -60 0 2 -412z"
       id="path29" />
    <path
       d="M14440 5415 l0 -415 55 0 55 0 0 415 0 415 -55 0 -55 0 0 -415z"
       id="path30" />
    <path
       d="M15402 5418 l3 -413 55 0 55 0 3 335 3 335 105 -255 c58 -140 120 -291 138 -335 l33 -80 38 0 38 0 74 180 c41 99 103 250 138 335 l64 155 3 -335 3 -335 55 0 55 0 3 413 2 412 -90 0 c-50 0 -90 -4 -90 -9 0 -6 -50 -131 -111 -278 -61 -147 -118 -284 -126 -303 -18 -44 -8 -61 -137 247 -57 136 -113 269 -124 296 l-21 47 -86 0 -85 0 2 -412z"
       id="path31" />
    <path
       d="M2668 5283 l-3 -188 -367 -3 -368 -2 0 -100 0 -100 460 0 460 0 0 290 0 290 -90 0 -90 0 -2 -187z"
       id="path32" />
  </g>
</svg>
