<?xml version="1.0" encoding="UTF-8" standalone="no"?>
<svg
   version="1.1"
   width="646.20001"
   height="496.93234"
   viewBox="0 0 646.20001 496.93234"
   id="svg32"
   sodipodi:docname="LPJLAB_ORANGE copy.svg"
   inkscape:version="1.4.3 (0d15f75, 2025-12-25)"
   xmlns:inkscape="http://www.inkscape.org/namespaces/inkscape"
   xmlns:sodipodi="http://sodipodi.sourceforge.net/DTD/sodipodi-0.dtd"
   xmlns="http://www.w3.org/2000/svg"
   xmlns:svg="http://www.w3.org/2000/svg">
  <defs
     id="defs32" />
  <sodipodi:namedview
     id="namedview32"
     pagecolor="#ffffff"
     bordercolor="#000000"
     borderopacity="0.25"
     inkscape:showpageshadow="2"
     inkscape:pageopacity="0.0"
     inkscape:pagecheckerboard="0"
     inkscape:deskcolor="#d1d1d1"
     inkscape:zoom="0.28441815"
     inkscape:cx="291.82385"
     inkscape:cy="186.34535"
     inkscape:window-width="1451"
     inkscape:window-height="571"
     inkscape:window-x="0"
     inkscape:window-y="33"
     inkscape:window-maximized="0"
     inkscape:current-layer="svg32" />
  <g
     id="g1"
     transform="translate(-192.8,-489.06767)">
    <path
       d="m 527.5,491 c -13.4,3.5 -27.7,11.4 -37.6,20.7 -5.9,5.5 -14.4,17.2 -18.8,26 -3.3,6.6 -3.3,6.6 -12.4,7.8 -5.5,0.7 -16.4,4.3 -22.4,7.3 -20.9,10.7 -35.8,38.1 -38,70 l -0.8,10.7 -6.4,4.1 c -17.8,11.7 -27.6,27.9 -30,49.8 -2,17.6 1.3,33.9 10.7,52.4 l 3.6,7.2 -5.2,4.6 c -10.1,8.8 -21.8,28.5 -25.8,43.4 -2.3,8.7 -2.3,25.3 0,34 2.5,9.5 9.7,23.7 16,31.6 6.5,8.1 12.9,13.8 24,21.4 l 8.1,5.5 2.6,8 c 3.3,10.2 6.5,16.4 12.4,24.3 12.8,17 38.3,29.2 64.5,30.9 l 9.5,0.6 8,8.2 c 4.4,4.4 10.1,9.6 12.8,11.4 15.5,10.6 33.6,14.3 51.1,10.6 17.9,-3.8 37,-17.6 44.1,-31.9 l 2.5,-5 V 733.5 522.3 l -2.3,-4.4 c -2.9,-5.5 -17.3,-18.3 -25.3,-22.6 -3.2,-1.7 -8.7,-3.8 -12,-4.7 -8.5,-2.2 -24,-2 -32.9,0.4 z m 32.3,17.6 c 7.8,2.5 15.4,9.1 19.1,16.5 l 3.1,6.2 v 142.5 142.4 l -3.7,-2.3 c -11.3,-6.7 -21.5,-9.8 -32.6,-9.9 -9.6,0 -14.7,4.3 -13.2,11 1.1,5.2 4.1,6.7 14,7.3 12.4,0.7 19.1,3.3 26.4,10.6 9.6,9.5 9.1,6.1 9.1,60.4 v 47.4 l -2.8,3.9 c -8.9,12.2 -23,19.5 -38.2,19.7 -11,0.2 -17.8,-1.9 -27.5,-8.4 -9.1,-6.1 -16.1,-14.3 -21.6,-25.4 -3.7,-7.6 -8.9,-25 -8.9,-30.1 0,-1.2 -1.1,-3.5 -2.4,-5.1 -1.9,-2.2 -3.2,-2.8 -6.6,-2.8 -3.4,0 -4.7,0.6 -6.7,3 -2.3,2.6 -2.5,3.4 -1.9,9.2 0.4,3.4 1.8,10.2 3.2,15 1.5,4.9 2.9,9.6 3.1,10.5 0.7,2.5 -2.3,2.3 -13.9,-0.6 -26.3,-6.7 -42.8,-23.2 -47.4,-47.7 -2.1,-10.9 -1.3,-26.6 2,-41.2 3.3,-14.4 1.8,-18.6 -6.7,-18.7 -4.7,0 -8.1,3.1 -9.7,9 -1.7,6.3 -4,20 -4.1,24.5 -0.1,2.2 -0.4,5.1 -0.8,6.5 -0.7,2.4 -1.1,2.1 -10.2,-7 -10.5,-10.5 -15.5,-18.6 -18.4,-30 -2.1,-8 -1.6,-23.1 1.1,-30.4 4.2,-11.8 13.9,-25.6 23.2,-32.8 12.3,-9.5 12.7,-11.1 5.8,-22.2 -17.6,-28.1 -18.4,-57.2 -2.3,-77.5 4.6,-5.8 14.5,-12.5 22.6,-15.3 9.3,-3.2 30.7,-3.2 42.8,0 10.1,2.7 12.3,2.7 15.7,0.1 2.1,-1.7 2.6,-2.9 2.6,-6.5 0,-5.5 -2.1,-7.7 -9.2,-9.9 -11.7,-3.5 -22.8,-4.8 -36.1,-4.1 l -12.8,0.6 0.5,-3.2 c 0.3,-1.8 1.1,-6.7 1.7,-10.8 2.4,-15.2 8,-27.2 16.8,-36 10.1,-10 21.5,-14.3 38.1,-14.3 10.3,0 17.1,1.1 29.8,5 7.1,2.2 8.6,2.4 11.2,1.3 3.7,-1.5 5.2,-4.1 5.2,-8.8 0,-2.6 -0.7,-4.2 -2.5,-5.7 -2.3,-2 -22.2,-8.5 -25.9,-8.5 -3.1,0 -2.8,-1.6 1.6,-8.1 9.2,-13.7 24,-24.7 38.8,-29 8.2,-2.3 21.9,-2.4 28.6,-0.3 z"
       id="path1"
       style="fill:#e05a00;stroke:none;stroke-width:0.1" />
    <path
       d="m 550.5,560.9 c -3.5,1.5 -4.7,3.8 -6.2,12.3 -2.6,15.2 -9.5,25.2 -20.8,30.4 -14.5,6.6 -30.3,5.2 -48.7,-4.3 -5.2,-2.7 -7.4,-3.3 -9.8,-2.8 -6.7,1.5 -9.3,10.3 -4.5,15.1 3.2,3.1 16.9,9.7 25,11.9 15.5,4.2 33.6,2.7 46.7,-3.7 8.1,-4 19.2,-15.1 23.6,-23.5 3.7,-7.1 7.2,-19.6 7.2,-25.9 0,-7.1 -6.5,-12 -12.5,-9.5 z"
       id="path2"
       style="fill:#e05a00;stroke:none;stroke-width:0.1" />
    <path
       d="m 431.5,670.7 c -6.7,1.6 -8.5,9.3 -3.8,16.6 10.8,16.8 23.3,28.8 38.3,36.9 4.4,2.4 8,4.8 8,5.3 0,2.2 -8.1,13.2 -12,16.3 -2.2,1.9 -6.6,4.5 -9.8,5.9 -4.9,2.3 -7.3,2.6 -17.2,2.8 -11,0.3 -11.5,0.4 -13.7,2.9 -2.7,3.1 -3,8.1 -0.8,11.3 2.4,3.4 7.8,4.6 17.4,4 23.6,-1.6 40.6,-13.3 53.3,-36.6 l 1.7,-3.1 9.8,0.6 c 9.8,0.7 24.6,-0.7 31,-2.7 6.6,-2.1 8.5,-9.8 3.7,-14.6 -2.6,-2.5 -2.7,-2.6 -11.7,-1.7 -13.1,1.3 -29.3,1 -35.7,-0.5 -17.6,-4.3 -32.4,-15.4 -44.3,-33.3 -4.2,-6.3 -6.6,-8.9 -8.9,-9.7 -1.7,-0.6 -3.1,-1 -3.2,-1 -0.1,0.1 -1,0.3 -2.1,0.6 z"
       id="path3"
       style="fill:#e05a00;stroke:none;stroke-width:0.1" />
    <path
       d="m 517.4,777.2 c -12.5,11.7 -20.7,24.6 -24,37.8 -1.3,5.1 -1.5,9.4 -1.1,19.5 l 0.5,13 -12.6,0.1 c -9.5,0.1 -14.7,0.7 -20.5,2.3 -10.1,2.7 -19.4,6.9 -21.3,9.5 -2.2,3.2 -1.8,8.3 1.1,11.1 3.1,3.2 7.8,3.2 15.3,0.1 9.8,-4.1 20.4,-5.9 30.6,-5.3 17.6,1.1 29.9,7.4 48.3,24.9 5,4.8 6.7,5.8 9.6,5.8 5,0 8.7,-4 8.7,-9.3 0,-3.7 -0.6,-4.6 -8.2,-12.1 -4.6,-4.5 -11.1,-9.9 -14.6,-12.1 -13.3,-8.5 -13.9,-9.1 -16.2,-15.2 -3.2,-8.1 -3.8,-20.5 -1.5,-28.9 2.2,-8.1 9.1,-18.8 17.4,-26.9 8.7,-8.5 10,-14.6 3.9,-18.9 -4.6,-3.2 -8.2,-2.1 -15.4,4.6 z"
       id="path4"
       style="fill:#e05a00;stroke:none;stroke-width:0.1" />
    <path
       d="m 251.6,491.5 c -2.1,0.7 -5.6,3 -7.7,5.1 -3.4,3.4 -4.4,5 -6.4,10.9 -0.6,1.8 -0.8,1.7 -2.2,-1 -4.2,-8.2 -10.2,-11.9 -19.4,-11.8 -10.4,0 -16.8,4.5 -20.6,14.6 -1.3,3.3 -1.7,9.3 -2.1,28.9 l -0.4,24.8 h 46.1 46.1 v -23.9 c 0,-21.4 -0.2,-24.6 -2.1,-30.6 -4.5,-14.6 -17.8,-21.8 -31.3,-17 z m 12.2,20.9 c 2.8,1.7 4.2,7.8 4.2,18.5 V 542 H 257.5 247 v -9.1 c 0,-14.2 2.6,-20.9 8.5,-22.1 1.9,-0.4 6.5,0.5 8.3,1.6 z m -37.4,5.1 c 2.9,3.1 3.6,6.4 3.6,16.6 v 7.9 h -10 -10 v -7.3 c 0,-10.1 0.9,-14.3 3.6,-17.2 3.2,-3.5 9.6,-3.5 12.8,0 z"
       id="path5"
       style="fill:#e05a00;stroke:none;stroke-width:0.1" />
    <path
       d="m 621,735.7 v 218.6 l 6,-0.6 c 29.8,-3.2 51.7,-32.8 45.7,-61.9 -3,-14.7 -10.3,-25.9 -22.5,-34.5 -8.4,-5.9 -12.6,-9.7 -16.2,-14.9 -7.9,-11.3 -9.3,-28.8 -3.3,-41.5 1.7,-3.7 4.8,-8.6 6.9,-10.9 l 3.8,-4.2 7.3,0.4 c 5.8,0.4 8.8,1.3 14.6,4.1 11.8,5.8 18.9,14.2 22.7,26.6 2.4,7.6 2.5,13 0.5,23.4 -1.9,10 -1.9,17.7 0,25.1 10.5,40.4 59.3,53.9 88.6,24.7 25.6,-25.6 18.7,-68.3 -13.5,-84.2 -10.9,-5.3 -21.3,-6.9 -32.3,-4.8 -4.3,0.7 -11.8,1.4 -16.8,1.4 -8,-0.1 -9.8,-0.4 -15.8,-3.2 -14.2,-6.7 -24.2,-20.4 -25.4,-35.1 l -0.6,-7.2 4.3,-4.2 c 2.4,-2.2 7.3,-5.5 10.9,-7.2 6.2,-2.9 7.3,-3.1 17.6,-3.1 9.1,0.1 12,0.5 16.7,2.3 7.3,2.9 15.1,10 22.2,20.1 6.7,9.6 12,14.2 21.1,18.6 21,10 43.8,6 60.6,-10.5 10.2,-10.1 14.9,-21.6 14.9,-36.5 0,-15.2 -5.2,-28.1 -15.5,-38 -23.4,-22.7 -60.5,-19.8 -79.1,6.1 -2.7,3.7 -7.1,9.2 -9.8,12.1 -14.4,15.7 -39.2,17.7 -56.5,4.7 -7.2,-5.4 -7.9,-7.2 -6.2,-16.8 2.3,-13.7 11.7,-25.7 24.8,-31.9 6,-2.8 7.8,-3.1 15.8,-3.2 5,0 13.3,0.6 18.5,1.4 8.4,1.3 10.4,1.2 17.1,-0.2 14.4,-2.9 25.6,-10.2 33.5,-21.7 5.9,-8.8 8.6,-16.6 9.2,-27 0.8,-15.5 -4.6,-30 -15,-40.3 -7.5,-7.4 -14,-11.1 -24.4,-13.7 -19.4,-5 -35.6,-0.6 -49.8,13.3 -12.7,12.6 -18.1,27.7 -15.6,43.9 3,19.4 2.4,26.9 -2.7,37.5 -6.7,13.5 -26.9,25.3 -39.6,22.9 -7.9,-1.5 -16.7,-18.4 -16.7,-32 0,-16.5 6.6,-27.4 23.2,-39.2 15.6,-10.9 23.8,-26.1 23.8,-43.9 0,-27.4 -20.2,-49.6 -48.2,-52.9 L 621,517 Z"
       id="path11"
       style="fill:#e05a00;stroke:none;stroke-width:0.1" />
    <path
       d="m 248.9,587.9 c -19.7,8.6 -40.2,17.6 -45.8,20 l -10.1,4.4 v 8.8 c 0,8.2 0.1,8.8 2.3,9.5 2.1,0.7 14.6,6 63.7,27.4 12.9,5.6 24.1,10.4 24.8,10.7 0.9,0.4 1.2,-2.2 1.2,-10.9 v -11.5 l -9.2,-3.5 -9.3,-3.5 V 621 602.7 l 9.2,-3.6 9.3,-3.6 v -11.8 c 0,-6.4 -0.1,-11.7 -0.2,-11.6 -0.2,0.1 -16.3,7.1 -35.9,15.8 z m 0.1,33.6 c 0,7 -0.4,10.5 -1.1,10.5 -2.1,0 -27,-10.2 -26.4,-10.8 1.1,-1.1 23.9,-10.1 25.8,-10.1 1.5,-0.1 1.7,1 1.7,10.4 z"
       id="path12"
       style="fill:#e05a00;stroke:none;stroke-width:0.1" />
    <path
       d="m 267,690 v 19 h -37 -37 v 10 10 h 46 46 v -29 -29 h -9 -9 z"
       id="path13"
       style="fill:#e05a00;stroke:none;stroke-width:0.1" />
    <path
       d="m 193,796.4 v 10.5 l 35.6,0.3 35.6,0.3 2.9,3.3 c 1.6,1.8 2.9,4.3 2.9,5.6 0,2.8 -4.5,8.6 -6.6,8.6 -1.8,0 -1.8,0.5 0.7,10.5 1.3,5 2.7,8.5 3.4,8.5 2.5,0 8.5,-3 11.8,-6 5.7,-5 8.1,-11.9 8.1,-23 0,-11.1 -2.3,-17.1 -8.2,-22 -7.4,-6.1 -9.1,-6.3 -49.4,-6.8 L 193,785.8 Z"
       id="path20"
       style="fill:#e05a00;stroke:none;stroke-width:0.1" />
    <path
       d="m 210.6,848.4 c -5.3,2 -8.6,4.5 -11.8,9.2 -4.8,6.8 -5.8,13.5 -5.8,37.6 V 917 h 46 46 V 906.5 896 h -18 -18 v -12.4 c 0,-19.8 -3.8,-28.5 -15,-34.2 -4.7,-2.4 -18.1,-2.9 -23.4,-1 z m 15.4,20.9 c 4.3,2.1 6,7.1 6,17.4 v 9.3 h -11.1 -11.2 l 0.5,-9.8 c 0.3,-5.3 1.1,-11 1.9,-12.5 2.3,-5 8.7,-7 13.9,-4.4 z"
       id="path21"
       style="fill:#e05a00;stroke:none;stroke-width:0.1" />
    <path
       d="m 266.8,946.7 -0.3,18.8 -36.7,0.3 -36.8,0.2 v 10 10 h 46 46 v -29 -29 h -9 -9 z"
       id="path32"
       style="fill:#e05a00;stroke:none;stroke-width:0.1" />
  </g>
</svg>
