<?xml version="1.0" encoding="UTF-8" standalone="no"?>
<!-- Created with Inkscape (http://www.inkscape.org/) -->

<svg
   width="107.33673mm"
   height="51.080563mm"
   viewBox="0 0 107.33673 51.080563"
   version="1.1"
   id="svg1"
   inkscape:export-filename="bitmap.png"
   inkscape:export-xdpi="96"
   inkscape:export-ydpi="96"
   xmlns:inkscape="http://www.inkscape.org/namespaces/inkscape"
   xmlns:sodipodi="http://sodipodi.sourceforge.net/DTD/sodipodi-0.dtd"
   xmlns="http://www.w3.org/2000/svg"
   xmlns:svg="http://www.w3.org/2000/svg">
  <sodipodi:namedview
     id="namedview1"
     pagecolor="#ffffff"
     bordercolor="#000000"
     borderopacity="0.25"
     inkscape:showpageshadow="2"
     inkscape:pageopacity="0.0"
     inkscape:pagecheckerboard="0"
     inkscape:deskcolor="#d1d1d1"
     inkscape:document-units="mm">
    <inkscape:page
       x="0"
       y="0"
       width="107.33673"
       height="51.080563"
       id="page2"
       margin="0"
       bleed="0" />
  </sodipodi:namedview>
  <defs
     id="defs1" />
  <g
     inkscape:label="Layer 1"
     inkscape:groupmode="layer"
     id="layer1"
     transform="translate(-49.212498,-123.03125)">
    <g
       id="g35"
       inkscape:label="logo-novasbe"
       transform="matrix(0.26458333,0,0,0.26458333,-25.619181,57.5715)">
      <path
         id="path1"
         d="M 0,0 7.173,-7.042 C 7.635,-7.497 8.028,-7.96 8.406,-8.444 v 7.989 h 1.691 v -11.971 l -7.313,7.17 C 2.37,-4.854 2.008,-4.417 1.691,-3.964 v -8.007 H 0 Z"
         style="fill:#000000;fill-opacity:1;fill-rule:nonzero;stroke:none"
         transform="matrix(1.3333333,0,0,-1.3333333,387.32133,398.10213)" />
      <path
         id="path2"
         d="m 0,0 c -0.773,0.821 -1.817,1.255 -2.91,1.255 -1.087,0 -2.131,-0.434 -2.922,-1.255 -0.787,-0.824 -1.202,-1.902 -1.202,-3.063 0,-1.157 0.415,-2.221 1.202,-3.042 0.791,-0.82 1.818,-1.261 2.922,-1.261 1.11,0 2.12,0.441 2.91,1.261 0.793,0.821 1.219,1.885 1.219,3.042 C 1.219,-1.902 0.793,-0.824 0,0 m 1.36,-7.332 c -1.152,-1.144 -2.656,-1.772 -4.27,-1.772 -1.608,0 -3.141,0.628 -4.281,1.772 -1.151,1.148 -1.75,2.63 -1.75,4.269 0,1.646 0.599,3.13 1.75,4.287 1.154,1.14 2.66,1.755 4.281,1.755 1.629,0 3.118,-0.615 4.27,-1.755 1.151,-1.157 1.766,-2.655 1.766,-4.287 0,-1.639 -0.615,-3.121 -1.766,-4.269"
         style="fill:#000000;fill-opacity:1;fill-rule:nonzero;stroke:none"
         transform="matrix(1.3333333,0,0,-1.3333333,418.66373,402.33773)" />
      <path
         id="path3"
         d="m 0,0 h 1.908 l 2.528,-6.136 c 0.269,-0.643 0.476,-1.238 0.604,-1.853 0.141,0.595 0.345,1.21 0.609,1.853 L 8.179,0 h 1.895 L 5.04,-11.971 Z"
         style="fill:#000000;fill-opacity:1;fill-rule:nonzero;stroke:none"
         transform="matrix(1.3333333,0,0,-1.3333333,426.46587,398.7088)" />
      <path
         id="path4"
         d="M 0,0 -1.152,2.623 C -1.277,2.931 -1.418,3.351 -1.576,3.932 -1.721,3.351 -1.864,2.931 -1.988,2.623 L -3.142,0 Z m 0.647,-1.562 h -4.469 l -1.31,-2.965 h -1.929 l 5.468,11.97 5.466,-11.97 H 1.93 Z"
         style="fill:#000000;fill-opacity:1;fill-rule:nonzero;stroke:none"
         transform="matrix(1.3333333,0,0,-1.3333333,451.5544,408.02653)" />
      <path
         id="path5"
         d="m 0,0 c 0.27,-1.032 1.026,-1.58 2.176,-1.58 1.111,0 1.789,0.68 1.789,1.708 0,1.127 -0.836,1.403 -2.002,1.981 -2.007,0.997 -3.114,1.772 -3.114,3.512 0,1.853 1.344,3.155 3.395,3.155 1.673,0 2.83,-0.689 3.252,-1.899 L 4.062,6.123 C 3.622,6.828 3.102,7.165 2.385,7.165 1.392,7.165 0.774,6.583 0.774,5.72 0.774,4.607 1.66,4.264 2.925,3.672 4.912,2.735 5.844,1.917 5.844,0.258 5.844,-1.885 4.44,-3.306 2.1,-3.306 c -1.92,0 -3.189,0.94 -3.567,2.61 z"
         style="fill:#000000;fill-opacity:1;fill-rule:nonzero;stroke:none"
         transform="matrix(1.3333333,0,0,-1.3333333,471.89813,410.06827)" />
      <path
         id="path6"
         d="m 0,0 c -2.48,0 -4.17,-1.788 -4.17,-4.351 0,-2.529 1.725,-4.29 3.978,-4.29 1.344,0 2.545,0.49 3.653,1.454 v -2.11 c -0.996,-0.724 -2.15,-1.081 -3.51,-1.081 -1.737,0 -3.223,0.598 -4.327,1.71 -1.107,1.114 -1.708,2.657 -1.708,4.331 0,1.696 0.601,3.208 1.724,4.337 1.124,1.127 2.59,1.724 4.281,1.724 1.362,0 2.544,-0.403 3.647,-1.193 L 3.479,-1.353 C 2.434,-0.453 1.283,0 0,0"
         style="fill:#000000;fill-opacity:1;fill-rule:nonzero;stroke:none"
         transform="matrix(1.3333333,0,0,-1.3333333,492.9828,400.63853)" />
      <path
         id="path7"
         d="M 0,0 H 1.835 V -4.256 H 7.39 V 0 H 9.226 V -11.516 H 7.39 v 5.587 H 1.835 v -5.587 H 0 Z"
         style="fill:#000000;fill-opacity:1;fill-rule:nonzero;stroke:none"
         transform="matrix(1.3333333,0,0,-1.3333333,503.80693,398.7088)" />
      <path
         id="path8"
         d="M 0,0 C -0.775,0.821 -1.817,1.255 -2.907,1.255 -3.999,1.255 -5.044,0.821 -5.831,0 -6.617,-0.824 -7.03,-1.902 -7.03,-3.063 c 0,-1.157 0.413,-2.221 1.199,-3.042 0.787,-0.82 1.818,-1.261 2.924,-1.261 1.105,0 2.114,0.441 2.907,1.261 0.791,0.821 1.215,1.885 1.215,3.042 C 1.215,-1.902 0.791,-0.824 0,0 m 1.357,-7.332 c -1.153,-1.144 -2.651,-1.772 -4.264,-1.772 -1.613,0 -3.148,0.628 -4.28,1.772 -1.154,1.148 -1.756,2.63 -1.756,4.269 0,1.646 0.602,3.13 1.756,4.287 1.154,1.14 2.651,1.755 4.28,1.755 1.627,0 3.111,-0.615 4.264,-1.755 1.157,-1.157 1.77,-2.655 1.77,-4.287 0,-1.639 -0.613,-3.121 -1.77,-4.269"
         style="fill:#000000;fill-opacity:1;fill-rule:nonzero;stroke:none"
         transform="matrix(1.3333333,0,0,-1.3333333,533.9892,402.33773)" />
      <path
         id="path9"
         d="m 0,0 c -0.773,0.821 -1.818,1.255 -2.908,1.255 -1.086,0 -2.13,-0.434 -2.924,-1.255 -0.786,-0.824 -1.197,-1.902 -1.197,-3.063 0,-1.157 0.411,-2.221 1.197,-3.042 0.794,-0.82 1.818,-1.261 2.924,-1.261 1.109,0 2.118,0.441 2.908,1.261 0.79,0.821 1.219,1.885 1.219,3.042 C 1.219,-1.902 0.79,-0.824 0,0 m 1.357,-7.332 c -1.148,-1.144 -2.649,-1.772 -4.265,-1.772 -1.61,0 -3.143,0.628 -4.28,1.772 -1.151,1.148 -1.753,2.63 -1.753,4.269 0,1.646 0.602,3.13 1.753,4.287 1.151,1.14 2.657,1.755 4.28,1.755 1.63,0 3.117,-0.615 4.265,-1.755 1.156,-1.157 1.772,-2.655 1.772,-4.287 0,-1.639 -0.616,-3.121 -1.772,-4.269"
         style="fill:#000000;fill-opacity:1;fill-rule:nonzero;stroke:none"
         transform="matrix(1.3333333,0,0,-1.3333333,555.38373,402.33773)" />
      <path
         id="path10"
         d="m 0,0 h 1.835 v -9.842 h 4.103 v -1.674 H 0 Z"
         style="fill:#000000;fill-opacity:1;fill-rule:nonzero;stroke:none"
         transform="matrix(1.3333333,0,0,-1.3333333,565.514,398.7088)" />
      <path
         id="path11"
         d="M 0,0 C -0.776,0.821 -1.818,1.255 -2.911,1.255 -4,1.255 -5.039,0.821 -5.831,0 c -0.79,-0.824 -1.198,-1.902 -1.198,-3.063 0,-1.157 0.408,-2.221 1.198,-3.042 0.792,-0.82 1.816,-1.261 2.92,-1.261 1.109,0 2.121,0.441 2.911,1.261 0.788,0.821 1.213,1.885 1.213,3.042 C 1.213,-1.902 0.788,-0.824 0,0 m 1.358,-7.332 c -1.154,-1.144 -2.656,-1.772 -4.269,-1.772 -1.609,0 -3.142,0.628 -4.281,1.772 -1.152,1.148 -1.749,2.63 -1.749,4.269 0,1.646 0.597,3.13 1.749,4.287 1.156,1.14 2.655,1.755 4.281,1.755 1.633,0 3.115,-0.615 4.269,-1.755 1.152,-1.157 1.769,-2.655 1.769,-4.287 0,-1.639 -0.617,-3.121 -1.769,-4.269"
         style="fill:#000000;fill-opacity:1;fill-rule:nonzero;stroke:none"
         transform="matrix(1.3333333,0,0,-1.3333333,596.4124,402.33773)" />
      <path
         id="path12"
         d="m 0,0 h 6.306 v -1.593 h -4.47 v -2.87 h 4.47 v -1.64 h -4.47 v -5.413 H 0 Z"
         style="fill:#000000;fill-opacity:1;fill-rule:nonzero;stroke:none"
         transform="matrix(1.3333333,0,0,-1.3333333,605.27307,398.7088)" />
      <path
         id="path13"
         d="M 0,0 C 1.031,0 1.756,0.049 2.196,0.354 2.638,0.659 2.907,1.19 2.907,1.82 2.907,2.544 2.608,3.113 2.038,3.415 1.615,3.642 1.107,3.673 0.553,3.673 H 0 -0.631 V 0 Z m 0.062,5.095 c 1.66,0 2.403,0.384 2.403,1.591 0,1.433 -0.775,1.709 -2.403,1.709 h -0.693 v -3.3 z M -2.434,9.954 H 0.411 C 1.615,9.954 2.514,9.909 3.206,9.376 3.903,8.865 4.312,7.973 4.312,6.941 4.312,5.724 3.745,4.865 2.687,4.544 3.997,4.335 4.8,3.256 4.8,1.711 4.8,0.758 4.454,-0.11 3.884,-0.695 3.08,-1.511 2.009,-1.562 0.426,-1.562 h -2.86 z"
         style="fill:#000000;fill-opacity:1;fill-rule:nonzero;stroke:none"
         transform="matrix(1.3333333,0,0,-1.3333333,390.56667,437.76747)" />
      <path
         id="path14"
         d="m 0,0 v -6.986 c 0,-2.081 0.952,-3.129 2.814,-3.129 1.865,0 2.812,1.048 2.812,3.129 V 0 H 7.46 v -7.164 c 0,-3.113 -1.534,-4.656 -4.646,-4.656 -3.113,0 -4.632,1.543 -4.632,4.656 V 0 Z"
         style="fill:#000000;fill-opacity:1;fill-rule:nonzero;stroke:none"
         transform="matrix(1.3333333,0,0,-1.3333333,404.96973,424.49533)" />
      <path
         id="path15"
         d="m 0,0 c 0.267,-1.027 1.027,-1.578 2.178,-1.578 1.107,0 1.785,0.676 1.785,1.708 0,1.126 -0.833,1.404 -2.001,1.983 -2.01,0.997 -3.119,1.77 -3.119,3.51 0,1.85 1.349,3.158 3.399,3.158 1.678,0 2.829,-0.696 3.257,-1.9 L 4.06,6.123 C 3.62,6.833 3.094,7.168 2.386,7.168 1.389,7.168 0.772,6.59 0.772,5.721 0.772,4.606 1.658,4.271 2.924,3.673 4.915,2.742 5.845,1.914 5.845,0.259 5.845,-1.883 4.443,-3.3 2.099,-3.3 c -1.925,0 -3.186,0.934 -3.568,2.609 z"
         style="fill:#000000;fill-opacity:1;fill-rule:nonzero;stroke:none"
         transform="matrix(1.3333333,0,0,-1.3333333,422.53613,435.856)" />
      <path
         id="path16"
         d="m 327.153,197.535 h 1.83 v -11.516 h -1.83 z"
         style="fill:#000000;fill-opacity:1;fill-rule:nonzero;stroke:none"
         transform="matrix(1.3333333,0,0,-1.3333333,0,687.87467)" />
      <path
         id="path17"
         d="m 0,0 7.174,-7.04 c 0.459,-0.452 0.858,-0.919 1.233,-1.403 v 7.989 h 1.689 V -12.421 L 2.777,-5.254 C 2.37,-4.85 2.005,-4.413 1.692,-3.966 V -11.97 H 0 Z"
         style="fill:#000000;fill-opacity:1;fill-rule:nonzero;stroke:none"
         transform="matrix(1.3333333,0,0,-1.3333333,445.32253,423.88987)" />
      <path
         id="path18"
         d="M 0,0 H 6.304 V -1.593 H 1.832 V -4.476 H 6.304 V -6.119 H 1.832 v -3.723 h 4.472 v -1.674 H 0 Z"
         style="fill:#000000;fill-opacity:1;fill-rule:nonzero;stroke:none"
         transform="matrix(1.3333333,0,0,-1.3333333,465.39293,424.49533)" />
      <path
         id="path19"
         d="m 0,0 c 0.269,-1.027 1.027,-1.578 2.178,-1.578 1.11,0 1.783,0.676 1.783,1.708 0,1.126 -0.833,1.404 -2.004,1.983 -2.007,0.997 -3.114,1.77 -3.114,3.51 0,1.85 1.348,3.158 3.402,3.158 1.674,0 2.826,-0.696 3.251,-1.9 L 4.06,6.123 C 3.617,6.833 3.1,7.168 2.384,7.168 1.392,7.168 0.776,6.59 0.776,5.721 0.776,4.606 1.662,4.271 2.921,3.673 4.912,2.742 5.845,1.914 5.845,0.259 5.845,-1.883 4.439,-3.3 2.104,-3.3 c -1.931,0 -3.194,0.934 -3.573,2.609 z"
         style="fill:#000000;fill-opacity:1;fill-rule:nonzero;stroke:none"
         transform="matrix(1.3333333,0,0,-1.3333333,480.85253,435.856)" />
      <path
         id="path20"
         d="m 0,0 c 0.266,-1.027 1.023,-1.578 2.181,-1.578 1.103,0 1.784,0.676 1.784,1.708 0,1.126 -0.838,1.404 -2.009,1.983 -2.008,0.997 -3.11,1.77 -3.11,3.51 0,1.85 1.341,3.158 3.398,3.158 1.674,0 2.825,-0.696 3.253,-1.9 L 4.06,6.123 C 3.619,6.833 3.097,7.168 2.383,7.168 1.389,7.168 0.774,6.59 0.774,5.721 0.774,4.606 1.66,4.271 2.921,3.673 4.909,2.742 5.842,1.914 5.842,0.259 5.842,-1.883 4.437,-3.3 2.099,-3.3 c -1.926,0 -3.19,0.934 -3.572,2.609 z"
         style="fill:#000000;fill-opacity:1;fill-rule:nonzero;stroke:none"
         transform="matrix(1.3333333,0,0,-1.3333333,495.5752,435.856)" />
      <path
         id="path21"
         d="m 0,0 c 0.586,0.357 0.872,0.809 0.872,1.369 0,0.663 -0.445,1.112 -1.062,1.112 -0.693,0 -1.152,-0.47 -1.152,-1.127 0,-0.323 0.126,-0.631 0.363,-0.904 l 0.567,-0.69 z m -0.852,-2.369 -0.285,-0.197 c -0.931,-0.606 -1.452,-1.139 -1.452,-1.957 0,-1.001 0.774,-1.826 1.832,-1.826 0.757,0 1.549,0.358 2.368,1.081 z m 3.509,-4.125 c -1.06,-0.931 -2.15,-1.366 -3.492,-1.366 -2.117,0 -3.507,1.403 -3.507,3.289 0,1.363 0.833,2.411 2.509,3.476 l -0.458,0.501 c -0.505,0.564 -0.774,1.237 -0.774,1.915 0,1.482 1.169,2.597 2.911,2.597 1.737,0 2.762,-0.986 2.762,-2.438 0,-1.174 -0.724,-2.044 -2.194,-2.914 L 2.768,-4.22 c 0.502,0.515 0.979,1.13 1.453,1.806 l 1.072,-1.18 C 4.869,-4.284 4.359,-4.881 3.794,-5.398 L 5.69,-7.587 H 3.571 Z"
         style="fill:#000000;fill-opacity:1;fill-rule:nonzero;stroke:none"
         transform="matrix(1.3333333,0,0,-1.3333333,518.52827,429.7336)" />
      <path
         id="path22"
         d="M 0,0 H 6.303 V -1.593 H 1.831 V -4.476 H 6.303 V -6.119 H 1.831 v -3.723 h 4.472 v -1.674 H 0 Z"
         style="fill:#000000;fill-opacity:1;fill-rule:nonzero;stroke:none"
         transform="matrix(1.3333333,0,0,-1.3333333,535.3356,424.49533)" />
      <path
         id="path23"
         d="m 0,0 c -2.482,0 -4.171,-1.788 -4.171,-4.353 0,-2.527 1.722,-4.278 3.979,-4.278 1.348,0 2.546,0.478 3.652,1.446 v -2.112 c -0.999,-0.721 -2.151,-1.076 -3.509,-1.076 -1.737,0 -3.22,0.594 -4.329,1.705 -1.105,1.112 -1.708,2.66 -1.708,4.337 0,1.693 0.603,3.203 1.725,4.331 1.12,1.129 2.593,1.721 4.281,1.721 1.361,0 2.541,-0.4 3.651,-1.191 L 3.473,-1.353 C 2.433,-0.449 1.281,0 0,0"
         style="fill:#000000;fill-opacity:1;fill-rule:nonzero;stroke:none"
         transform="matrix(1.3333333,0,0,-1.3333333,557.1572,426.42507)" />
      <path
         id="path24"
         d="M 0,0 C -0.771,0.825 -1.818,1.255 -2.907,1.255 -3.996,1.255 -5.04,0.825 -5.83,0 c -0.788,-0.818 -1.201,-1.9 -1.201,-3.057 0,-1.162 0.413,-2.223 1.201,-3.046 0.79,-0.824 1.815,-1.253 2.923,-1.253 1.108,0 2.117,0.429 2.907,1.253 0.793,0.823 1.22,1.884 1.22,3.046 C 1.22,-1.9 0.793,-0.818 0,0 m 1.361,-7.33 c -1.153,-1.139 -2.653,-1.769 -4.268,-1.769 -1.611,0 -3.145,0.63 -4.282,1.769 -1.152,1.149 -1.751,2.63 -1.751,4.273 0,1.64 0.599,3.123 1.751,4.285 1.157,1.142 2.655,1.754 4.282,1.754 1.629,0 3.115,-0.612 4.268,-1.754 C 2.513,0.066 3.13,-1.434 3.13,-3.057 3.13,-4.7 2.513,-6.181 1.361,-7.33"
         style="fill:#000000;fill-opacity:1;fill-rule:nonzero;stroke:none"
         transform="matrix(1.3333333,0,0,-1.3333333,579.24707,428.12427)" />
      <path
         id="path25"
         d="m 0,0 7.173,-7.04 c 0.459,-0.452 0.852,-0.919 1.231,-1.403 v 7.989 h 1.694 V -12.421 L 2.779,-5.254 C 2.373,-4.85 2.006,-4.413 1.689,-3.966 V -11.97 H 0 Z"
         style="fill:#000000;fill-opacity:1;fill-rule:nonzero;stroke:none"
         transform="matrix(1.3333333,0,0,-1.3333333,589.376,423.88987)" />
      <path
         id="path26"
         d="m 0,0 c -0.775,0.825 -1.814,1.255 -2.903,1.255 -1.093,0 -2.134,-0.43 -2.925,-1.255 -0.789,-0.818 -1.199,-1.9 -1.199,-3.057 0,-1.162 0.41,-2.223 1.199,-3.046 0.791,-0.824 1.818,-1.253 2.925,-1.253 1.107,0 2.114,0.429 2.903,1.253 0.794,0.823 1.218,1.884 1.218,3.046 C 1.218,-1.9 0.794,-0.818 0,0 m 1.361,-7.33 c -1.152,-1.139 -2.656,-1.769 -4.264,-1.769 -1.614,0 -3.148,0.63 -4.282,1.769 -1.156,1.149 -1.755,2.63 -1.755,4.273 0,1.64 0.599,3.123 1.755,4.285 1.152,1.142 2.655,1.754 4.282,1.754 1.626,0 3.112,-0.612 4.264,-1.754 C 2.516,0.066 3.13,-1.434 3.13,-3.057 3.13,-4.7 2.516,-6.181 1.361,-7.33"
         style="fill:#000000;fill-opacity:1;fill-rule:nonzero;stroke:none"
         transform="matrix(1.3333333,0,0,-1.3333333,620.7132,428.12427)" />
      <path
         id="path27"
         d="m 0,0 c -0.093,-0.55 -0.266,-1.062 -0.519,-1.593 l -2.957,-6.136 -2.95,6.262 C -6.649,-1.001 -6.835,-0.517 -6.981,0 -6.995,-0.55 -7.076,-1.078 -7.184,-1.593 l -1.217,-5.673 h -1.694 l 2.673,11.97 3.329,-7.233 c 0.1,-0.207 0.305,-0.726 0.617,-1.562 0.222,0.644 0.479,1.16 0.651,1.562 L 0.431,4.704 3.163,-7.266 H 1.456 L 0.211,-1.579 C 0.164,-1.369 0.115,-0.855 0,0"
         style="fill:#000000;fill-opacity:1;fill-rule:nonzero;stroke:none"
         transform="matrix(1.3333333,0,0,-1.3333333,642.84733,430.162)" />
      <path
         id="path28"
         d="m 489.168,197.535 h 1.829 v -11.516 h -1.829 z"
         style="fill:#000000;fill-opacity:1;fill-rule:nonzero;stroke:none"
         transform="matrix(1.3333333,0,0,-1.3333333,0,687.87467)" />
      <path
         id="path29"
         d="m 0,0 c -2.482,0 -4.168,-1.788 -4.168,-4.353 0,-2.527 1.723,-4.278 3.981,-4.278 1.341,0 2.542,0.478 3.652,1.446 v -2.112 c -1.001,-0.721 -2.151,-1.076 -3.509,-1.076 -1.739,0 -3.224,0.594 -4.33,1.705 -1.105,1.112 -1.706,2.66 -1.706,4.337 0,1.693 0.601,3.203 1.722,4.331 1.123,1.129 2.592,1.721 4.279,1.721 1.362,0 2.543,-0.4 3.651,-1.191 L 3.479,-1.353 C 2.438,-0.449 1.283,0 0,0"
         style="fill:#000000;fill-opacity:1;fill-rule:nonzero;stroke:none"
         transform="matrix(1.3333333,0,0,-1.3333333,668.794,426.42507)" />
      <path
         id="path30"
         d="m 0,0 c 0.271,-1.027 1.029,-1.578 2.184,-1.578 1.106,0 1.785,0.676 1.785,1.708 0,1.126 -0.839,1.404 -2.01,1.983 -2.006,0.997 -3.11,1.77 -3.11,3.51 0,1.85 1.342,3.158 3.395,3.158 1.677,0 2.831,-0.696 3.257,-1.9 L 4.061,6.123 C 3.62,6.833 3.098,7.168 2.391,7.168 1.395,7.168 0.777,6.59 0.777,5.721 0.777,4.606 1.66,4.271 2.922,3.673 4.92,2.742 5.849,1.914 5.849,0.259 5.849,-1.883 4.438,-3.3 2.104,-3.3 c -1.93,0 -3.192,0.934 -3.574,2.609 z"
         style="fill:#000000;fill-opacity:1;fill-rule:nonzero;stroke:none"
         transform="matrix(1.3333333,0,0,-1.3333333,680.71187,435.856)" />
      <path
         id="path31"
         d="M 0,0 -26.336,-61.681 H -8.727 L 6.81,-25.297 22.343,-61.681 H 39.952 L 13.616,0 Z"
         style="fill:#000000;fill-opacity:1;fill-rule:nonzero;stroke:none"
         transform="matrix(1.3333333,0,0,-1.3333333,635.2132,286.12427)" />
      <path
         id="path32"
         d="m 0,0 c -9.382,0 -17.012,7.631 -17.012,17.018 0,9.374 7.63,17.004 17.012,17.004 9.391,0 17.018,-7.63 17.018,-17.004 C 17.018,7.631 9.391,0 0,0 m 0,50.223 c -18.316,0 -33.209,-14.902 -33.209,-33.215 0,-18.319 14.893,-33.211 33.209,-33.211 18.319,0 33.217,14.892 33.217,33.211 0,18.313 -14.898,33.215 -33.217,33.215"
         style="fill:#000000;fill-opacity:1;fill-rule:nonzero;stroke:none"
         transform="matrix(1.3333333,0,0,-1.3333333,453.18267,314.37093)" />
      <path
         id="path33"
         d="m 389.301,239.632 h -98.81 v 16.195 h 98.81 z"
         style="fill:#000000;fill-opacity:1;fill-rule:nonzero;stroke:none"
         transform="matrix(1.3333333,0,0,-1.3333333,0,687.87467)" />
      <path
         id="path34"
         d="M 0,0 V -36.201 L -29.785,0 h -16.194 v -61.681 h 16.194 v 36.192 L 0,-61.681 H 16.193 V 0 Z"
         style="fill:#000000;fill-opacity:1;fill-rule:nonzero;stroke:none"
         transform="matrix(1.3333333,0,0,-1.3333333,344.13373,286.12427)" />
      <path
         id="path35"
         d="M 0,0 26.338,61.681 H 8.729 L -6.807,25.298 -22.343,61.681 H -39.952 L -13.613,0 Z"
         style="fill:#000000;fill-opacity:1;fill-rule:nonzero;stroke:none"
         transform="matrix(1.3333333,0,0,-1.3333333,572.35,368.36507)" />
    </g>
  </g>
</svg>
