<?xml version="1.0" encoding="UTF-8" standalone="no"?>
<!-- Created with Inkscape (http://www.inkscape.org/) -->

<svg
   version="1.1"
   id="svg1"
   width="3923.5249"
   height="3719.8979"
   sodipodi:docname="SPEM_trimmed.svg"
   inkscape:version="1.4.3 (0d15f75, 2025-12-25)"
   xmlns:inkscape="http://www.inkscape.org/namespaces/inkscape"
   xmlns:sodipodi="http://sodipodi.sourceforge.net/DTD/sodipodi-0.dtd"
   xmlns="http://www.w3.org/2000/svg"
   xmlns:svg="http://www.w3.org/2000/svg">
  <sodipodi:namedview
     id="namedview1"
     pagecolor="#ffffff"
     bordercolor="#000000"
     borderopacity="0.25"
     inkscape:showpageshadow="2"
     inkscape:pageopacity="0.0"
     inkscape:pagecheckerboard="0"
     inkscape:deskcolor="#d1d1d1"
     inkscape:zoom="0.01"
     inkscape:cx="1950"
     inkscape:cy="1300"
     inkscape:window-width="1322"
     inkscape:window-height="637"
     inkscape:window-x="0"
     inkscape:window-y="33"
     inkscape:window-maximized="0"
     inkscape:current-layer="svg1" />
  <defs
     id="defs1" />
  <g
     id="g53"
     transform="translate(-1511.4666,-1666.5121)">
    <path
       id="path42"
       d="m 0,0 c -4.677,-4.198 18.332,5.171 18.254,0 -0.186,-12.426 11.791,-19.83 11.688,-32.257 -0.039,-4.636 -1.589,-35.471 -5.996,-38.975 0,-20.579 13.542,-25.891 13.542,-46.47 6.043,-5.889 -0.868,-30.682 -0.051,-37.475 1.803,-15.01 -43.213,-38.604 -36.144,-53.218 -0.156,29.988 -1.785,75.832 -1.771,105.821 C -0.461,-68.383 -0.171,-34.191 0,0"
       style="fill:#ee1e47;fill-opacity:1;fill-rule:nonzero;stroke:none"
       transform="matrix(1.3333333,0,0,-1.3333333,1512.3031,3248.6011)" />
    <path
       id="path43"
       d="M 0,0 C 0.087,0.106 0.148,0.222 0.222,0.333 0.208,0.34 0.195,0.348 0.182,0.355 0.12,0.237 0.07,0.12 0,0"
       style="fill:#ee1e47;fill-opacity:1;fill-rule:nonzero;stroke:none"
       transform="matrix(1.3333333,0,0,-1.3333333,4622.3672,3473.8985)" />
    <path
       id="path44"
       d="m 0,0 c -0.125,-0.692 -0.158,-1.402 -0.161,-2.117 0.058,-0.012 0.103,-0.031 0.158,-0.045 C 0.027,-1.437 0.045,-0.714 0,0"
       style="fill:#ee1e47;fill-opacity:1;fill-rule:nonzero;stroke:none"
       transform="matrix(1.3333333,0,0,-1.3333333,4309.1891,3080.7768)" />
    <path
       id="path45"
       d="m 0,0 c -0.075,-0.755 -0.074,-1.522 -0.057,-2.291 0.047,0.013 0.092,0.028 0.141,0.04 C 0.095,-1.495 0.086,-0.742 0,0"
       style="fill:#ee1e47;fill-opacity:1;fill-rule:nonzero;stroke:none"
       transform="matrix(1.3333333,0,0,-1.3333333,4894.914,3090.3836)" />
    <path
       id="path46"
       d="m 0,0 c -36.97,-10.269 -74.173,-9.009 -110.908,1.917 -9.853,2.93 -19.02,7.762 -27.264,14.093 -12.585,9.666 -19.406,21.071 -19.786,38.29 -2.876,130.571 -6.782,261.119 -10.393,391.674 -0.083,3.015 -0.474,6.021 -0.721,9.031 -0.001,0 -1.474,-0.004 -1.474,-0.004 l -1.475,0.007 c -8.558,-43.878 -17.308,-87.72 -25.634,-131.642 -14.969,-78.96 -29.178,-158.067 -44.685,-236.919 -10.149,-51.605 -46.075,-77.69 -94.604,-88.299 -37.146,-8.121 -74.644,-6.69 -111.423,3.204 -46.358,12.47 -74.416,41.956 -83.956,89.781 -23.877,119.692 -48.577,239.218 -72.98,358.804 -0.845,4.143 -2.043,8.214 -3.076,12.318 0,0 0,10e-4 0,10e-4 -0.002,0 -1.676,0.147 -1.676,0.147 l -1.681,-0.04 c -1.318,-81.643 -2.622,-163.287 -3.961,-244.93 -0.902,-55.036 -1.723,-110.073 -2.836,-165.105 -0.527,-26.026 -11.574,-42.334 -36.099,-50.802 -30.468,-10.519 -61.708,-11.169 -92.852,-2.653 -10.555,2.886 -20.156,8.224 -28.366,15.666 -11.728,10.631 -18.013,22.703 -17.079,39.756 5.425,99.052 9.347,198.185 14.862,297.231 3.429,61.582 7.619,123.145 14.011,184.521 5.607,53.834 32.329,84.802 85.213,96.99 47.18,10.874 94.966,11.098 142.366,2.537 59.568,-10.757 88.074,-42.643 98.745,-104.889 19.401,-113.175 39.331,-226.259 59.112,-339.368 0.513,-2.93 1.851,-5.716 2.805,-8.569 1.052,0.234 2.115,0.309 3.19,0.225 19.55,103.888 39.092,207.778 58.657,311.664 3.465,18.4 7.024,36.782 10.549,55.171 8.217,42.877 33.22,70.478 75.658,80.975 54.838,13.563 110.254,15.107 165.198,1.672 C -12.859,620.3 14.542,587.787 20.753,536.942 27.5,481.708 30.905,426.165 34.358,370.663 39.427,289.196 43.606,207.672 47.984,126.163 49.054,106.238 49.886,86.278 50.013,66.33 50.238,31.102 34.39,9.552 0,0 m -828.427,30.667 c -9.58,-16.521 -26.895,-23.982 -44.737,-28.834 -21.705,-5.903 -43.964,-8.152 -66.452,-8.148 -68.393,0.011 -136.786,-0.073 -205.179,0.037 -30.352,0.048 -60.374,3.167 -89.792,11.003 -10.551,2.811 -20.739,6.633 -30.383,11.748 -27.25,14.45 -43.049,36.8 -44.581,67.867 -1.102,22.346 -1.001,44.762 -1.051,67.146 -0.128,58.104 -0.043,116.208 -0.043,174.311 0,73.235 -0.01,146.47 0,219.705 0.01,52.622 23.899,78.53 76.714,83.079 4.811,0.415 9.675,0.283 14.515,0.284 110.76,0.014 221.523,-0.365 332.277,0.451 15.104,0.112 23.851,-5.341 30.775,-17.154 22.877,-39.033 22.532,-79.792 6.579,-120.462 -9.007,-22.965 -30.326,-31.914 -53.225,-36.118 -14.263,-2.619 -28.71,-3.989 -43.326,-3.879 -38.128,0.286 -76.26,0.174 -114.391,0.045 -13.888,-0.047 -14.092,-0.271 -14.268,-13.986 -0.216,-16.944 -0.209,-33.895 0,-50.839 0.167,-13.387 0.369,-13.643 14.702,-13.675 52.655,-0.117 105.311,-0.026 157.966,-0.066 10.891,-0.009 21.788,-0.037 32.669,-0.427 20.163,-0.72 32.648,-11.779 38.173,-30.481 6.476,-21.924 6.905,-44.192 0.213,-66.212 -5.641,-18.562 -18.235,-31.07 -35.9,-38.509 -17.491,-7.366 -35.93,-10.913 -54.794,-11.127 -45.386,-0.513 -90.779,-0.454 -136.168,-0.668 -16.727,-0.078 -16.795,-0.131 -16.907,-16.886 -0.097,-14.526 -0.096,-29.053 0.01,-43.578 0.113,-16.08 0.184,-16.198 15.66,-16.283 21.183,-0.116 42.368,-0.031 63.551,-0.031 47.209,0 94.427,-0.504 141.622,0.314 13.931,0.241 23.599,-4.097 29.312,-16.266 16.264,-34.641 15.647,-69.267 -3.542,-102.361 m -504.328,328.994 c -1.514,-14.433 -3.769,-28.727 -7.628,-42.77 -21.605,-78.617 -74.386,-126.728 -149.857,-151.805 -54.737,-18.187 -111.321,-21.263 -168.483,-17.187 -3.605,0.257 -7.195,0.736 -11.63,1.2 -3.858,-6.928 -2.338,-13.098 -2.383,-19.003 -0.188,-24.794 0,-49.592 -0.112,-74.387 -0.109,-23.938 -11.603,-39.76 -34.033,-48.225 -13.16,-4.966 -26.809,-7.942 -40.578,-8.945 -37.407,-2.725 -74.88,-3.984 -112.138,2.434 -11.967,2.061 -23.573,5.206 -34.523,10.571 -19.19,9.404 -29.28,24.147 -28.781,46.136 0.534,23.574 0.113,47.17 0.112,70.757 -10e-4,135.47 0,270.94 10e-4,406.411 0,5.443 -0.133,10.895 0.133,16.326 1.418,28.909 14.29,50.568 40.305,64.165 24.021,12.555 50.097,18.033 76.528,20.82 67.434,7.11 135.087,10.316 202.763,3.828 50.267,-4.819 98.814,-16.629 144.065,-39.99 97.143,-50.152 136.768,-139.931 126.239,-240.336 m -624.87,-207.187 C -1975.727,93.31 -2014.561,52.527 -2069.341,25.718 -2112.39,4.65 -2158.5,-5.038 -2205.746,-8.437 c -59.274,-4.264 -118.549,-3.22 -176.906,10.062 -29.067,6.615 -56.851,16.602 -80.89,35.09 -36.657,28.194 -44.694,69.839 -32.927,108.866 4.294,14.243 12.758,25.993 24.395,35.306 13.4,10.723 25.771,14.78 44.372,7.129 66.333,-27.287 135.639,-39.205 207.608,-30.903 12.112,1.397 23.792,4.236 34.473,10.342 10.914,6.238 16.637,15.427 16.049,28.279 -0.562,12.291 -7.357,20.237 -17.876,25.218 -12.164,5.759 -25.253,8.227 -38.6,9.156 -34.99,2.438 -70.005,4.524 -104.978,7.183 -21.758,1.653 -43.104,5.926 -63.9,12.619 -54.151,17.426 -87.944,53.377 -99.421,109.567 -8.773,42.95 -7.327,85.544 6.453,127.168 19.022,57.457 59.008,95.926 112.951,121.083 40.509,18.892 83.56,28.137 127.72,32.196 24.663,2.266 49.435,4.365 74.294,3.352 52.588,-1.962 105.182,-3.912 156.531,-17.225 11.722,-3.039 23.193,-6.729 34.335,-11.504 5.338,-2.287 9.125,-5.661 10.68,-11.392 7.349,-27.086 11.715,-54.599 7.156,-82.528 -7.741,-47.422 -39.084,-73.505 -89.471,-76.247 -31.091,-1.692 -61.505,3.335 -91.925,8.437 -29.399,4.932 -58.831,6.714 -88.501,2.594 -9.682,-1.345 -19.117,-3.399 -27.665,-8.126 -12.326,-6.816 -17.635,-17.602 -16.952,-31.646 0.642,-13.191 8.199,-21.055 19.558,-25.849 11.821,-4.99 24.333,-7.109 37.12,-7.522 34.457,-1.116 68.915,-2.212 103.374,-3.24 20.628,-0.615 41.006,-3.378 61.061,-7.988 65.585,-15.076 101.471,-54.851 108.545,-121.6 3.465,-32.688 1.17,-65.22 -8.543,-96.966 m 2174.4,401.891 c -12.794,97.385 -33.605,192.871 -66.478,285.512 -52.912,149.111 -134.009,279.871 -252.843,385.83 -88.63,79.027 -189.87,137.226 -299.861,180.751 -155.316,61.462 -317.7,91.954 -483.04,108.999 -84.871,8.75 -170.008,13.143 -255.31,15.666 -101.671,3.007 -203.212,2.104 -304.73,-3.945 -25.939,-1.546 -51.895,-2.779 -77.844,-4.156 -5.951,-1.003 -11.867,-2.435 -17.861,-2.946 -78.339,-6.678 -156.022,-17.946 -233.068,-33.526 -120.043,-24.276 -236.461,-59.779 -347.005,-113.189 -201.753,-97.479 -355.461,-243.979 -454.172,-446.259 -68.391,-140.149 -103.582,-289.424 -120.987,-443.554 -5.157,-45.671 -7.096,-91.573 -11.094,-137.322 6.546,-6.08 5.974,-14.245 6.014,-21.989 0.253,-49.529 0.256,-99.058 0,-148.587 -0.04,-7.742 0.538,-15.913 -6.057,-21.964 4.963,-59.659 10.578,-119.257 19.102,-178.524 20.056,-139.436 45.804,-277.874 73.712,-415.92 34.248,-169.407 71.568,-338.145 110.98,-506.419 18.19,-77.663 36.854,-155.215 55.611,-232.742 6.792,-28.073 17.698,-54.023 42.379,-71.665 22.668,-8.708 44.909,-6.544 67.074,2.189 11.291,4.449 22.126,9.673 32.561,15.847 173.833,102.848 347.724,205.597 521.519,308.508 63.188,37.416 129.541,67.784 199.177,91.062 126.728,42.366 257.662,59.606 390.509,64.487 88.931,3.267 177.87,0.74 266.707,-3.957 116.576,-6.165 232.983,-15.376 349.73,-18.556 100.003,-2.724 199.59,0.057 298.046,19.684 76.633,15.277 148.84,41.876 213.836,86.142 81.181,55.29 139.106,130.116 181.534,217.654 57.964,119.592 84.645,247.676 101.095,378.366 8.841,70.246 13.554,140.831 16,211.611 4.999,144.679 3.663,289.071 -15.233,432.912"
       style="fill:#ee1e47;fill-opacity:1;fill-rule:nonzero;stroke:none"
       transform="matrix(1.3333333,0,0,-1.3333333,5122.3272,3710.2359)" />
    <path
       id="path47"
       d="M 0,0 C -3.236,-0.908 -1.453,-4.858 -1.404,-7.59 0.32,-5.246 0.058,-2.608 0,0"
       style="fill:#ee1e47;fill-opacity:1;fill-rule:nonzero;stroke:none"
       transform="matrix(1.3333333,0,0,-1.3333333,4894.8383,3093.4383)" />
    <path
       id="path48"
       d="M 0,0 C -0.252,-0.026 -0.477,-0.068 -0.688,-0.119 -0.724,-2.739 -1.009,-5.396 0.715,-7.751 1.526,-4.918 1.717,0.176 0,0"
       style="fill:#ee1e47;fill-opacity:1;fill-rule:nonzero;stroke:none"
       transform="matrix(1.3333333,0,0,-1.3333333,4895.944,3093.2273)" />
    <path
       id="path49"
       d="m 0,0 c -0.112,-2.649 -0.404,-5.326 1.478,-7.676 v 0 C 1.448,-4.934 3.257,-0.813 0,0"
       style="fill:#ee1e47;fill-opacity:1;fill-rule:nonzero;stroke:none"
       transform="matrix(1.3333333,0,0,-1.3333333,4309.1845,3083.6596)" />
    <path
       id="path50"
       d="M 0,0 C -0.228,0.047 -0.478,0.079 -0.754,0.094 -2.89,0.211 -2.388,-4.774 -1.722,-7.614 h 10e-4 C 0.407,-5.376 -0.012,-2.646 0,0"
       style="fill:#ee1e47;fill-opacity:1;fill-rule:nonzero;stroke:none"
       transform="matrix(1.3333333,0,0,-1.3333333,4308.9747,3083.5997)" />
    <path
       id="path51"
       d="M 0,0 C 0.99,1.918 0.852,3.663 -1.027,5.14 -1.523,3.217 -1.24,0.71 0,0"
       style="fill:#ee1e47;fill-opacity:1;fill-rule:nonzero;stroke:none"
       transform="matrix(1.3333333,0,0,-1.3333333,4622.6093,3473.4247)" />
    <path
       id="path52"
       d="M 0,0 C 1.752,0.057 2.032,3.339 1.366,5.565 0.086,4.004 0.33,1.818 -0.756,0.178 -0.533,0.06 -0.284,-0.009 0,0"
       style="fill:#ee1e47;fill-opacity:1;fill-rule:nonzero;stroke:none"
       transform="matrix(1.3333333,0,0,-1.3333333,4623.6716,3473.6923)" />
    <path
       id="path53"
       d="M 0,0 C -9.894,2.534 -20.186,3.914 -30.384,4.762 -44.243,5.913 -44.92,5.163 -45.039,-8.49 c -0.221,-25.39 -0.063,-50.784 -0.063,-76.177 0,-25.997 0.245,-51.997 -0.133,-77.988 -0.132,-9.091 2.794,-13.411 12.367,-13.116 10.271,0.315 20.45,0.501 30.668,2.265 31.401,5.419 50.786,23.237 58.445,54.203 3.829,15.484 4.015,31.151 3.14,46.838 C 57.227,-33.784 37.489,-9.599 0,0"
       style="fill:#ee1e47;fill-opacity:1;fill-rule:nonzero;stroke:none"
       transform="matrix(1.3333333,0,0,-1.3333333,2950.1005,3081.4123)" />
  </g>
</svg>
